<svg width="50" height="50" viewBox="0 0 50 50" fill="none" xmlns="http://www.w3.org/2000/svg">
<g clip-path="url(#clip0_521_503)">
<path d="M25.1781 -0.0171814C14.9297 -0.0171814 6.25 8.71251 6.25 19.0516C6.25 29.8797 16.3109 40.9531 23.0781 48.7359C23.1047 48.7672 24.1984 49.9813 25.5453 49.9813H25.6641C27.0125 49.9813 28.0984 48.7672 28.125 48.7359C34.475 41.4359 43.75 29.3969 43.75 19.0516C43.75 8.71094 36.9797 -0.0171814 25.1781 -0.0171814ZM25.8047 46.6391C25.75 46.6938 25.6703 46.7547 25.6 46.8063C25.5281 46.7563 25.45 46.6938 25.3922 46.6391L24.575 45.6984C18.1594 38.3391 9.37344 28.2594 9.37344 19.05C9.37344 10.4063 16.6109 3.10469 25.1766 3.10469C35.8469 3.10469 40.6234 11.1125 40.6234 19.05C40.6234 26.0406 35.6375 35.325 25.8047 46.6391ZM25.0547 9.44376C19.8781 9.44376 15.6797 13.6406 15.6797 18.8188C15.6797 23.9969 19.8781 28.1938 25.0547 28.1938C30.2312 28.1938 34.4297 23.9953 34.4297 18.8188C34.4297 13.6422 30.2328 9.44376 25.0547 9.44376ZM25.0547 25.0688C21.6078 25.0688 18.7328 22.1969 18.7328 18.75C18.7328 15.3031 21.5359 12.5 24.9828 12.5C28.4313 12.5 31.2328 15.3031 31.2328 18.75C31.2344 22.1969 28.5031 25.0688 25.0547 25.0688Z" fill="white"/>
</g>
<defs>
<clipPath id="clip0_521_503">
<rect width="50" height="50" fill="white"/>
</clipPath>
</defs>
</svg>
