<svg width="256" height="38" viewBox="0 0 256 38" fill="none" xmlns="http://www.w3.org/2000/svg">
<path d="M5.7 15.7H1.9L0 19L1.9 22.3H5.7L7.7 19L5.7 15.7Z" fill="#14BF98"/>
<path d="M10.2996 7.8H6.49961L4.59961 11.1L6.49961 14.4H10.2996L12.1996 11.1L10.2996 7.8Z" fill="#14BF98"/>
<path d="M14.7996 0H10.9996L9.09961 3.3L10.9996 6.6H14.7996L16.6996 3.3L14.7996 0Z" fill="#14BF98"/>
<path d="M23.8996 0H19.9996L18.0996 3.3L19.9996 6.6H23.8996L25.7996 3.3L23.8996 0Z" fill="#14BF98"/>
<path d="M19.1002 8.6H16.2002L14.7002 11.1L16.2002 13.6H19.1002L20.6002 11.1L19.1002 8.6Z" fill="#14BF98"/>
<path d="M28.1998 8.6H25.1998L23.7998 11.1L25.1998 13.6H28.1998L29.5998 11.1L28.1998 8.6Z" fill="#14BF98"/>
<path d="M18.8004 25.7H16.5004L15.4004 27.7L16.5004 29.7H18.8004L19.9004 27.7L18.8004 25.7Z" fill="#14BF98"/>
<path d="M27.9004 25.7H25.6004L24.4004 27.7L25.6004 29.7H27.9004L29.0004 27.7L27.9004 25.7Z" fill="#14BF98"/>
<path d="M22.9 34.7H21L20 36.3L21 38H22.9L23.9 36.3L22.9 34.7Z" fill="#14BF98"/>
<path d="M32.9002 0H29.1002L27.2002 3.3L29.1002 6.6H32.9002L34.9002 3.3L32.9002 0Z" fill="#14BF98"/>
<path d="M14.4998 16.2H11.2998L9.7998 18.9L11.2998 21.6H14.4998L15.9998 18.9L14.4998 16.2Z" fill="#14BF98"/>
<path d="M32.6004 16.2H29.5004L27.9004 18.9L29.5004 21.6H32.6004L34.2004 18.9L32.6004 16.2Z" fill="#14BF98"/>
<path d="M23.2998 16.6H20.5998L19.2998 18.9L20.5998 21.2H23.2998L24.5998 18.9L23.2998 16.6Z" fill="#14BF98"/>
<path d="M37.4002 7.8H33.6002L31.7002 11.1L33.6002 14.4H37.4002L39.3002 11.1L37.4002 7.8Z" fill="#14BF98"/>
<path d="M9.7 25H6.6L5 27.7L6.6 30.4H9.7L11.3 27.7L9.7 25Z" fill="#14BF98"/>
<path d="M12.4002 34.9H10.6002L9.7002 36.5L10.6002 38H12.4002L13.3002 36.5L12.4002 34.9Z" fill="#14BF98"/>
<path d="M41.9998 15.7H38.1998L36.2998 19L38.1998 22.3H41.9998L43.8998 19L41.9998 15.7Z" fill="#14BF98"/>
<path d="M37.2996 25H34.1996L32.5996 27.7L34.1996 30.4H37.2996L38.8996 27.7L37.2996 25Z" fill="#14BF98"/>
<path d="M33.3 33.7H30.8L29.5 35.8L30.8 38H33.3L34.5 35.8L33.3 33.7Z" fill="#14BF98"/>
<path d="M70.3952 35V33.2702C71.7258 33.211 72.7164 33.0927 73.3669 32.9153C74.0175 32.7083 74.4462 32.3535 74.6532 31.8508C74.8602 31.3185 74.9637 30.5202 74.9637 29.4556V9.14113C74.9637 8.07661 74.8602 7.29301 74.6532 6.79032C74.4758 6.25807 74.0618 5.88844 73.4113 5.68145C72.7608 5.47446 71.7554 5.35618 70.3952 5.32661V3.59677C71.1048 3.62634 72.0511 3.65591 73.2339 3.68548C74.4167 3.71505 75.7325 3.72984 77.1815 3.72984C78.8669 3.72984 80.3454 3.71505 81.6169 3.68548C82.918 3.65591 83.9382 3.62634 84.6774 3.59677V5.32661C83.1398 5.35618 82.0013 5.47446 81.2621 5.68145C80.5228 5.88844 80.0349 6.25807 79.7984 6.79032C79.5618 7.29301 79.4435 8.07661 79.4435 9.14113V29.4556C79.4435 30.5202 79.5618 31.3185 79.7984 31.8508C80.0349 32.3535 80.5228 32.7083 81.2621 32.9153C82.0013 33.0927 83.1398 33.211 84.6774 33.2702V35C83.9382 34.9409 82.918 34.9113 81.6169 34.9113C80.3454 34.8817 78.8669 34.8669 77.1815 34.8669C75.7325 34.8669 74.4167 34.8817 73.2339 34.9113C72.0511 34.9113 71.1048 34.9409 70.3952 35ZM50.0363 35V33.2702C51.5739 33.211 52.6976 33.0927 53.4073 32.9153C54.1465 32.7083 54.6344 32.3535 54.871 31.8508C55.1075 31.3185 55.2258 30.5202 55.2258 29.4556V9.14113C55.2258 8.07661 55.1075 7.29301 54.871 6.79032C54.6344 6.25807 54.1465 5.88844 53.4073 5.68145C52.6976 5.47446 51.5739 5.35618 50.0363 5.32661V3.59677C50.7755 3.62634 51.7809 3.65591 53.0524 3.68548C54.3535 3.71505 55.832 3.72984 57.4879 3.72984C58.9664 3.72984 60.297 3.71505 61.4798 3.68548C62.6626 3.65591 63.6089 3.62634 64.3185 3.59677V5.32661C62.9879 5.35618 61.9825 5.47446 61.3024 5.68145C60.6519 5.88844 60.2231 6.25807 60.0161 6.79032C59.8091 7.29301 59.7056 8.07661 59.7056 9.14113V29.4556C59.7056 30.4906 59.8091 31.2742 60.0161 31.8065C60.2231 32.3387 60.6519 32.7083 61.3024 32.9153C61.9825 33.0927 62.9879 33.211 64.3185 33.2702V35C63.6089 34.9409 62.6626 34.9113 61.4798 34.9113C60.297 34.8817 58.9664 34.8669 57.4879 34.8669C55.8024 34.8669 54.3239 34.8817 53.0524 34.9113C51.7809 34.9113 50.7755 34.9409 50.0363 35ZM58.0202 20.0524V18.3669H76.6492V20.0524H58.0202ZM95.0174 35.621C92.8883 35.621 91.0254 35.1478 89.4287 34.2016C87.8614 33.2258 86.6491 31.836 85.7916 30.0323C84.934 28.2285 84.5053 26.0995 84.5053 23.6452C84.5053 21.1613 84.934 19.0175 85.7916 17.2137C86.6491 15.3804 87.891 13.9758 89.5174 13C91.1437 12.0242 93.0805 11.5363 95.3278 11.5363C97.2499 11.5363 98.9058 11.9059 100.296 12.6452C101.715 13.3844 102.794 14.5524 103.533 16.1492C104.302 17.746 104.657 19.8306 104.598 22.4032H87.344L87.2996 20.7177H100.163C100.192 19.2688 100.029 17.9825 99.6746 16.8589C99.3198 15.7352 98.758 14.8481 97.9891 14.1976C97.2499 13.547 96.2889 13.2218 95.1061 13.2218C93.598 13.2218 92.2674 13.8575 91.1141 15.129C89.9905 16.4005 89.3252 18.3965 89.1182 21.1169L89.1625 21.25C89.133 21.5457 89.1182 21.871 89.1182 22.2258C89.1182 22.5806 89.1182 22.9503 89.1182 23.3347C89.1182 26.4691 89.7244 28.8938 90.9367 30.6089C92.1491 32.2944 93.8937 33.1371 96.1706 33.1371C97.6491 33.1371 98.9649 32.7823 100.118 32.0726C101.301 31.3333 102.277 30.1949 103.046 28.6573L104.598 29.5444C103.829 31.4664 102.602 32.9597 100.917 34.0242C99.2606 35.0887 97.2942 35.621 95.0174 35.621ZM112.208 35V33.2702C113.716 33.211 114.839 33.0927 115.579 32.9153C116.318 32.7083 116.806 32.3387 117.042 31.8065C117.279 31.2742 117.397 30.4906 117.397 29.4556V9.14113C117.397 8.07661 117.279 7.29301 117.042 6.79032C116.806 6.25807 116.318 5.88844 115.579 5.68145C114.839 5.47446 113.716 5.35618 112.208 5.32661V3.59677C112.622 3.62634 113.154 3.65591 113.805 3.68548C114.455 3.68548 115.224 3.68548 116.111 3.68548C117.028 3.68548 118.048 3.68548 119.171 3.68548C120.887 3.68548 122.395 3.68548 123.696 3.68548C124.997 3.65591 125.958 3.64113 126.579 3.64113C130.186 3.64113 132.981 4.4543 134.962 6.08065C136.943 7.67742 137.934 9.9543 137.934 12.9113C137.934 14.922 137.431 16.6667 136.426 18.1452C135.45 19.6237 134.03 20.7621 132.167 21.5605C130.334 22.3589 128.131 22.7581 125.559 22.7581C124.967 22.7581 124.391 22.7433 123.829 22.7137C123.267 22.6546 122.735 22.5806 122.232 22.4919C121.759 22.4032 121.33 22.2997 120.946 22.1815V20.496C121.537 20.6734 122.188 20.8065 122.897 20.8952C123.637 20.9839 124.376 21.0282 125.115 21.0282C127.806 21.0282 129.817 20.3629 131.147 19.0323C132.478 17.7016 133.143 15.7056 133.143 13.0444C133.143 10.4126 132.522 8.47581 131.28 7.23387C130.038 5.96237 128.131 5.32661 125.559 5.32661H121.877V29.4556C121.877 30.4906 122.025 31.2742 122.321 31.8065C122.616 32.3387 123.208 32.7083 124.095 32.9153C124.982 33.0927 126.298 33.211 128.042 33.2702V35C127.569 34.9704 126.934 34.9556 126.135 34.9556C125.366 34.9261 124.45 34.9113 123.385 34.9113C122.321 34.8817 121.123 34.8669 119.792 34.8669C118.018 34.8669 116.495 34.8817 115.224 34.9113C113.982 34.9113 112.977 34.9409 112.208 35ZM147.957 35.621C145.917 35.621 144.084 35.207 142.457 34.379C140.861 33.5215 139.589 32.2056 138.643 30.4315C137.697 28.6573 137.224 26.3804 137.224 23.6008C137.224 20.7917 137.697 18.5 138.643 16.7258C139.589 14.9516 140.876 13.6505 142.502 12.8226C144.128 11.9651 145.947 11.5363 147.957 11.5363C149.998 11.5363 151.816 11.9651 153.413 12.8226C155.039 13.6505 156.326 14.9516 157.272 16.7258C158.218 18.5 158.691 20.7917 158.691 23.6008C158.691 26.3804 158.218 28.6573 157.272 30.4315C156.326 32.2056 155.039 33.5215 153.413 34.379C151.816 35.207 149.998 35.621 147.957 35.621ZM147.957 33.8911C149.732 33.8911 151.195 33.078 152.349 31.4516C153.502 29.8253 154.078 27.2083 154.078 23.6008C154.078 19.9933 153.502 17.3616 152.349 15.7056C151.195 14.0497 149.732 13.2218 147.957 13.2218C146.154 13.2218 144.675 14.0497 143.522 15.7056C142.398 17.3616 141.837 19.9933 141.837 23.6008C141.837 27.2083 142.398 29.8253 143.522 31.4516C144.675 33.078 146.154 33.8911 147.957 33.8911ZM170.295 35.621C168.166 35.621 166.303 35.1478 164.706 34.2016C163.139 33.2258 161.927 31.8508 161.069 30.0766C160.241 28.2728 159.827 26.1438 159.827 23.6895C159.827 21.2056 160.271 19.0618 161.158 17.2581C162.045 15.4247 163.302 14.0202 164.928 13.0444C166.554 12.039 168.477 11.5363 170.694 11.5363C172.35 11.5363 173.814 11.7876 175.085 12.2903C176.357 12.793 177.362 13.4879 178.102 14.375C178.87 15.2325 179.255 16.2231 179.255 17.3468C179.255 18.3522 178.944 19.1801 178.323 19.8306C177.732 20.4516 176.963 20.7621 176.017 20.7621C175.278 20.7621 174.671 20.5551 174.198 20.1411C173.755 19.7272 173.533 19.1949 173.533 18.5444C173.533 17.9825 173.651 17.4946 173.888 17.0806C174.154 16.6667 174.405 16.2823 174.642 15.9274C174.908 15.5726 175.041 15.2177 175.041 14.8629C175.041 14.3898 174.716 14.0054 174.065 13.7097C173.415 13.414 172.572 13.2661 171.537 13.2661C169.231 13.2661 167.471 14.1237 166.259 15.8387C165.046 17.5242 164.44 19.9785 164.44 23.2016C164.44 26.4247 165.032 28.8938 166.214 30.6089C167.427 32.2944 169.171 33.1371 171.448 33.1371C172.897 33.1371 174.169 32.7675 175.263 32.0282C176.386 31.2594 177.303 30.1358 178.013 28.6573L179.61 29.5444C178.87 31.4664 177.688 32.9597 176.061 34.0242C174.435 35.0887 172.513 35.621 170.295 35.621ZM190.267 35.621C188.138 35.621 186.275 35.1478 184.678 34.2016C183.111 33.2258 181.899 31.8508 181.041 30.0766C180.213 28.2728 179.799 26.1438 179.799 23.6895C179.799 21.2056 180.243 19.0618 181.13 17.2581C182.017 15.4247 183.274 14.0202 184.9 13.0444C186.526 12.039 188.448 11.5363 190.666 11.5363C192.322 11.5363 193.786 11.7876 195.057 12.2903C196.329 12.793 197.334 13.4879 198.073 14.375C198.842 15.2325 199.227 16.2231 199.227 17.3468C199.227 18.3522 198.916 19.1801 198.295 19.8306C197.704 20.4516 196.935 20.7621 195.989 20.7621C195.249 20.7621 194.643 20.5551 194.17 20.1411C193.727 19.7272 193.505 19.1949 193.505 18.5444C193.505 17.9825 193.623 17.4946 193.86 17.0806C194.126 16.6667 194.377 16.2823 194.614 15.9274C194.88 15.5726 195.013 15.2177 195.013 14.8629C195.013 14.3898 194.688 14.0054 194.037 13.7097C193.387 13.414 192.544 13.2661 191.509 13.2661C189.202 13.2661 187.443 14.1237 186.231 15.8387C185.018 17.5242 184.412 19.9785 184.412 23.2016C184.412 26.4247 185.004 28.8938 186.186 30.6089C187.399 32.2944 189.143 33.1371 191.42 33.1371C192.869 33.1371 194.141 32.7675 195.235 32.0282C196.358 31.2594 197.275 30.1358 197.985 28.6573L199.581 29.5444C198.842 31.4664 197.659 32.9597 196.033 34.0242C194.407 35.0887 192.485 35.621 190.267 35.621ZM214.87 35V33.2702C216.142 33.2406 217.029 33.004 217.532 32.5605C218.034 32.1169 218.286 31.289 218.286 30.0766V16.8589C218.286 15.7944 218.034 15.0403 217.532 14.5968C217.029 14.1532 216.142 13.9315 214.87 13.9315V12.2016C215.403 12.2312 216.186 12.2755 217.221 12.3347C218.286 12.3642 219.365 12.379 220.459 12.379C221.76 12.379 223.091 12.3642 224.451 12.3347C225.841 12.2755 226.861 12.2312 227.512 12.2016V13.9315C226.299 13.9315 225.323 14.0349 224.584 14.2419C223.874 14.4194 223.357 14.7446 223.032 15.2177C222.706 15.6613 222.544 16.297 222.544 17.125V30.0766C222.544 30.875 222.706 31.5108 223.032 31.9839C223.357 32.4274 223.874 32.7527 224.584 32.9597C225.323 33.1371 226.299 33.2406 227.512 33.2702V35C226.861 34.9704 225.841 34.9409 224.451 34.9113C223.091 34.8522 221.76 34.8226 220.459 34.8226C219.365 34.8226 218.286 34.8522 217.221 34.9113C216.186 34.9409 215.403 34.9704 214.87 35ZM198.326 35V33.2702C200.159 33.2406 201.446 33.004 202.185 32.5605C202.924 32.1169 203.294 31.289 203.294 30.0766V17.125C203.294 15.8831 202.924 15.0403 202.185 14.5968C201.446 14.1532 200.159 13.9315 198.326 13.9315V12.2016C199.006 12.2312 200.026 12.2755 201.387 12.3347C202.776 12.3642 204.107 12.379 205.379 12.379C206.473 12.379 207.537 12.3642 208.572 12.3347C209.637 12.2755 210.435 12.2312 210.967 12.2016V13.9315C209.696 13.9315 208.809 14.1532 208.306 14.5968C207.833 15.0403 207.596 15.8831 207.596 17.125V30.2984C207.596 31.3925 207.848 32.1613 208.35 32.6048C208.853 33.0188 209.725 33.2406 210.967 33.2702V35C210.435 34.9704 209.637 34.9409 208.572 34.9113C207.537 34.8522 206.473 34.8226 205.379 34.8226C204.107 34.8226 202.776 34.8522 201.387 34.9113C200.026 34.9409 199.006 34.9704 198.326 35ZM206.842 30.5645L205.866 29.2339L219.04 16.5927L219.971 17.9234L206.842 30.5645ZM237.182 35V33.2702C238.364 33.2406 239.296 33.1371 239.976 32.9597C240.656 32.7527 241.129 32.4126 241.395 31.9395C241.691 31.4664 241.839 30.8454 241.839 30.0766V17.0363C241.839 15.9422 241.558 15.1586 240.996 14.6855C240.434 14.1828 239.503 13.9315 238.202 13.9315C236.605 13.9315 235.393 14.3159 234.565 15.0847C233.737 15.8535 233.323 16.9772 233.323 18.4556C233.323 19.9933 233.766 21.1761 234.653 22.004C235.541 22.832 236.812 23.246 238.468 23.246H243.613V24.3992H237.315C234.653 24.3992 232.584 23.8817 231.105 22.8468C229.627 21.7823 228.887 20.3038 228.887 18.4113C228.887 16.4005 229.656 14.8629 231.194 13.7984C232.761 12.7339 235.008 12.2016 237.936 12.2016C238.793 12.2016 239.739 12.2312 240.774 12.2903C241.839 12.3495 243.007 12.379 244.278 12.379C245.047 12.379 245.875 12.3642 246.762 12.3347C247.649 12.3051 248.477 12.2755 249.246 12.246C250.015 12.2164 250.636 12.2016 251.109 12.2016V13.9315C249.246 13.9315 247.945 14.168 247.206 14.6411C246.496 15.1142 246.141 15.9422 246.141 17.125V30.0766C246.141 31.2594 246.496 32.0874 247.206 32.5605C247.916 33.004 249.217 33.2406 251.109 33.2702V35C250.429 34.9704 249.409 34.9409 248.049 34.9113C246.718 34.8522 245.373 34.8226 244.012 34.8226C242.711 34.8226 241.41 34.8522 240.109 34.9113C238.808 34.9409 237.832 34.9704 237.182 35ZM229.02 35.3105C228.281 35.3105 227.571 35.1922 226.891 34.9556C226.211 34.6895 225.576 34.3051 224.984 33.8024L225.649 32.4274C226.182 32.7527 226.684 32.9153 227.157 32.9153C227.66 32.9153 228.074 32.7527 228.399 32.4274C228.754 32.0726 229.109 31.4516 229.464 30.5645L230.218 28.746C230.573 27.8884 230.972 27.1788 231.416 26.6169C231.859 26.0255 232.406 25.5672 233.057 25.2419C233.737 24.8871 234.535 24.6358 235.452 24.4879C236.369 24.3401 237.463 24.2661 238.734 24.2661H243.037V24.9758H239.488C238.69 24.9758 237.995 25.0941 237.403 25.3306C236.842 25.5376 236.354 25.8925 235.94 26.3952C235.555 26.8978 235.201 27.578 234.875 28.4355L233.678 31.5847C233.145 32.9449 232.524 33.9059 231.815 34.4677C231.135 35.0296 230.203 35.3105 229.02 35.3105Z" fill="white"/>
</svg>
