<svg width="30" height="30" viewBox="0 0 30 30" fill="none" xmlns="http://www.w3.org/2000/svg">
<g clip-path="url(#clip0_519_504)">
<path d="M14.9996 0.600006C7.04661 0.600006 0.599609 7.04701 0.599609 15C0.599609 22.953 7.04661 29.4 14.9996 29.4C22.9526 29.4 29.3996 22.953 29.3996 15C29.3996 7.04701 22.9526 0.600006 14.9996 0.600006ZM20.5376 16.8465C20.5376 16.8465 21.8111 18.1035 22.1246 18.687C22.1336 18.699 22.1381 18.711 22.1411 18.717C22.2686 18.9315 22.2986 19.098 22.2356 19.2225C22.1306 19.4295 21.7706 19.5315 21.6476 19.5405H19.3976C19.2416 19.5405 18.9146 19.5 18.5186 19.227C18.2141 19.014 17.9141 18.6645 17.6216 18.324C17.1851 17.817 16.8071 17.379 16.4261 17.379C16.3777 17.3789 16.3296 17.3865 16.2836 17.4015C15.9956 17.4945 15.6266 17.9055 15.6266 19.0005C15.6266 19.3425 15.3566 19.539 15.1661 19.539H14.1356C13.7846 19.539 11.9561 19.416 10.3361 17.7075C8.35311 15.615 6.56811 11.418 6.55311 11.379C6.44061 11.1075 6.67311 10.962 6.92661 10.962H9.19911C9.50211 10.962 9.60111 11.1465 9.67011 11.31C9.75111 11.5005 10.0481 12.258 10.5356 13.11C11.3261 14.499 11.8106 15.063 12.1991 15.063C12.272 15.0621 12.3435 15.0436 12.4076 15.009C12.9146 14.727 12.8201 12.9195 12.7976 12.5445C12.7976 12.474 12.7961 11.736 12.5366 11.382C12.3506 11.1255 12.0341 11.028 11.8421 10.992C11.9198 10.8848 12.0222 10.7978 12.1406 10.7385C12.4886 10.5645 13.1156 10.539 13.7381 10.539H14.0846C14.7596 10.548 14.9336 10.5915 15.1781 10.653C15.6731 10.7715 15.6836 11.091 15.6401 12.1845C15.6266 12.495 15.6131 12.846 15.6131 13.26C15.6131 13.35 15.6086 13.446 15.6086 13.548C15.5936 14.1045 15.5756 14.736 15.9686 14.9955C16.0199 15.0276 16.0791 15.0448 16.1396 15.045C16.2761 15.045 16.6871 15.045 17.8001 13.1355C18.1434 12.5209 18.4416 11.8822 18.6926 11.2245C18.7151 11.1855 18.7811 11.0655 18.8591 11.019C18.9167 10.9897 18.9805 10.9747 19.0451 10.9755H21.7166C22.0076 10.9755 22.2071 11.019 22.2446 11.1315C22.3106 11.31 22.2326 11.8545 21.0131 13.506L20.4686 14.2245C19.3631 15.6735 19.3631 15.747 20.5376 16.8465Z" fill="white"/>
</g>
<defs>
<clipPath id="clip0_519_504">
<rect width="30" height="30" fill="white"/>
</clipPath>
</defs>
</svg>
